<svg width="328" height="328" viewBox="0 0 328 328" fill="none" xmlns="http://www.w3.org/2000/svg">
<rect width="328" height="328" fill="#7A3CB9"/>
<path d="M116.437 130.68C117.93 130.893 118.943 131.347 119.477 132.04C120.063 132.733 120.357 133.64 120.357 134.76C120.357 138.44 118.383 140.147 114.437 139.88L111.637 139.64C108.49 139.373 105.343 139.16 102.197 139C99.1032 138.84 95.8499 138.76 92.4366 138.76H88.8366C88.1966 146.653 87.5299 153.853 86.8366 160.36L100.597 160.12C102.57 160.12 103.877 160.467 104.517 161.16C105.21 161.853 105.557 162.787 105.557 163.96C105.557 165.773 105.023 167.213 103.957 168.28C102.89 169.293 101.37 169.8 99.3966 169.8H85.7166L85.2366 173.24C84.1166 182.04 81.7166 188.307 78.0366 192.04C74.4099 195.773 69.3966 197.64 62.9966 197.64C59.3699 197.64 56.0366 196.867 52.9966 195.32C49.9566 193.72 47.7166 191.8 46.2766 189.56C45.6899 188.653 45.3966 187.56 45.3966 186.28C45.3966 185 45.6899 183.88 46.2766 182.92C46.9166 181.96 47.6899 181.48 48.5966 181.48C49.2366 181.48 49.8499 181.693 50.4366 182.12C51.0766 182.547 51.8766 183.373 52.8366 184.6C55.3966 187.96 58.5699 189.64 62.3566 189.64C65.3966 189.64 67.9299 188.413 69.9566 185.96C72.0366 183.453 73.3699 179.533 73.9566 174.2L74.4366 169.8H70.5966C69.3699 169.8 68.3032 169.453 67.3966 168.76C66.5432 168.067 66.1166 167.08 66.1166 165.8C66.1166 164.147 66.5432 162.893 67.3966 162.04C68.2499 161.133 69.5032 160.68 71.1566 160.68C72.6499 160.68 74.1166 160.653 75.5566 160.6C76.1966 154.733 76.8899 147.613 77.6366 139.24C71.8766 139.773 67.8232 140.707 65.4766 142.04C63.1299 143.373 61.9566 145.347 61.9566 147.96C61.9566 149.773 62.4899 151.507 63.5566 153.16C63.8766 153.64 64.0366 154.12 64.0366 154.6C64.0366 155.56 63.5032 156.413 62.4366 157.16C61.3699 157.853 60.1699 158.2 58.8366 158.2C57.3966 158.2 56.1699 157.773 55.1566 156.92C54.5166 156.387 53.9032 155.293 53.3166 153.64C52.7299 151.987 52.4366 150.147 52.4366 148.12C52.4366 141.507 55.8232 136.707 62.5966 133.72C69.4232 130.733 79.3699 129.24 92.4366 129.24C101.503 129.24 109.503 129.72 116.437 130.68ZM113.297 197.4C109.991 197.4 107.351 196.2 105.377 193.8C103.404 191.4 102.417 188.253 102.417 184.36C102.417 180.093 103.404 176.067 105.377 172.28C107.351 168.44 109.964 165.373 113.217 163.08C116.524 160.733 120.017 159.56 123.697 159.56C124.871 159.56 125.644 159.8 126.017 160.28C126.444 160.707 126.791 161.507 127.057 162.68C128.177 162.467 129.351 162.36 130.577 162.36C133.191 162.36 134.497 163.293 134.497 165.16C134.497 166.28 134.097 168.947 133.297 173.16C132.071 179.293 131.457 183.56 131.457 185.96C131.457 186.76 131.644 187.4 132.017 187.88C132.444 188.36 132.977 188.6 133.617 188.6C134.631 188.6 135.857 187.96 137.297 186.68C138.737 185.347 140.684 183.213 143.137 180.28C143.777 179.533 144.497 179.16 145.297 179.16C145.991 179.16 146.524 179.48 146.897 180.12C147.324 180.76 147.537 181.64 147.537 182.76C147.537 184.893 147.031 186.547 146.017 187.72C143.831 190.44 141.511 192.733 139.057 194.6C136.604 196.467 134.231 197.4 131.937 197.4C130.177 197.4 128.551 196.813 127.057 195.64C125.617 194.413 124.524 192.76 123.777 190.68C121.004 195.16 117.511 197.4 113.297 197.4ZM116.177 189.32C117.351 189.32 118.471 188.627 119.537 187.24C120.604 185.853 121.377 184.013 121.857 181.72L124.817 167C122.577 167.053 120.497 167.907 118.577 169.56C116.711 171.16 115.217 173.293 114.097 175.96C112.977 178.627 112.417 181.453 112.417 184.44C112.417 186.093 112.737 187.32 113.377 188.12C114.071 188.92 115.004 189.32 116.177 189.32ZM150.875 197.4C147.569 197.4 144.929 196.2 142.955 193.8C140.982 191.4 139.995 188.253 139.995 184.36C139.995 180.093 140.982 176.067 142.955 172.28C144.929 168.44 147.542 165.373 150.795 163.08C154.102 160.733 157.595 159.56 161.275 159.56C162.449 159.56 163.222 159.8 163.595 160.28C164.022 160.707 164.369 161.507 164.635 162.68C165.755 162.467 166.929 162.36 168.155 162.36C170.769 162.36 172.075 163.293 172.075 165.16C172.075 166.28 171.675 168.947 170.875 173.16C169.649 179.293 169.035 183.56 169.035 185.96C169.035 186.76 169.222 187.4 169.595 187.88C170.022 188.36 170.555 188.6 171.195 188.6C172.209 188.6 173.435 187.96 174.875 186.68C176.315 185.347 178.262 183.213 180.715 180.28C181.355 179.533 182.075 179.16 182.875 179.16C183.569 179.16 184.102 179.48 184.475 180.12C184.902 180.76 185.115 181.64 185.115 182.76C185.115 184.893 184.609 186.547 183.595 187.72C181.409 190.44 179.089 192.733 176.635 194.6C174.182 196.467 171.809 197.4 169.515 197.4C167.755 197.4 166.129 196.813 164.635 195.64C163.195 194.413 162.102 192.76 161.355 190.68C158.582 195.16 155.089 197.4 150.875 197.4ZM153.755 189.32C154.929 189.32 156.049 188.627 157.115 187.24C158.182 185.853 158.955 184.013 159.435 181.72L162.395 167C160.155 167.053 158.075 167.907 156.155 169.56C154.289 171.16 152.795 173.293 151.675 175.96C150.555 178.627 149.995 181.453 149.995 184.44C149.995 186.093 150.315 187.32 150.955 188.12C151.649 188.92 152.582 189.32 153.755 189.32ZM188.453 197.4C185.147 197.4 182.507 196.2 180.533 193.8C178.56 191.4 177.573 188.253 177.573 184.36C177.573 180.093 178.56 176.067 180.533 172.28C182.507 168.44 185.12 165.373 188.373 163.08C191.68 160.733 195.173 159.56 198.853 159.56C200.027 159.56 200.8 159.8 201.173 160.28C201.6 160.707 201.947 161.507 202.213 162.68C203.333 162.467 204.507 162.36 205.733 162.36C208.347 162.36 209.653 163.293 209.653 165.16C209.653 166.28 209.253 168.947 208.453 173.16C207.227 179.293 206.613 183.56 206.613 185.96C206.613 186.76 206.8 187.4 207.173 187.88C207.6 188.36 208.133 188.6 208.773 188.6C209.787 188.6 211.013 187.96 212.453 186.68C213.893 185.347 215.84 183.213 218.293 180.28C218.933 179.533 219.653 179.16 220.453 179.16C221.147 179.16 221.68 179.48 222.053 180.12C222.48 180.76 222.693 181.64 222.693 182.76C222.693 184.893 222.187 186.547 221.173 187.72C218.987 190.44 216.667 192.733 214.213 194.6C211.76 196.467 209.387 197.4 207.093 197.4C205.333 197.4 203.707 196.813 202.213 195.64C200.773 194.413 199.68 192.76 198.933 190.68C196.16 195.16 192.667 197.4 188.453 197.4ZM191.333 189.32C192.507 189.32 193.627 188.627 194.693 187.24C195.76 185.853 196.533 184.013 197.013 181.72L199.973 167C197.733 167.053 195.653 167.907 193.733 169.56C191.867 171.16 190.373 173.293 189.253 175.96C188.133 178.627 187.573 181.453 187.573 184.44C187.573 186.093 187.893 187.32 188.533 188.12C189.227 188.92 190.16 189.32 191.333 189.32ZM221.872 197.4C219.845 197.4 218.405 196.333 217.552 194.2C216.752 192.067 216.352 188.653 216.352 183.96C216.352 177.027 217.338 170.44 219.312 164.2C219.792 162.653 220.565 161.533 221.632 160.84C222.752 160.093 224.298 159.72 226.272 159.72C227.338 159.72 228.085 159.853 228.512 160.12C228.938 160.387 229.152 160.893 229.152 161.64C229.152 162.493 228.752 164.413 227.952 167.4C227.418 169.533 226.992 171.4 226.672 173C226.352 174.6 226.085 176.573 225.872 178.92C227.632 174.333 229.605 170.6 231.792 167.72C233.978 164.84 236.112 162.787 238.192 161.56C240.325 160.333 242.272 159.72 244.032 159.72C247.498 159.72 249.232 161.453 249.232 164.92C249.232 167 248.645 170.76 247.472 176.2C246.458 180.84 245.952 183.907 245.952 185.4C245.952 187.533 246.725 188.6 248.272 188.6C249.338 188.6 250.592 187.96 252.032 186.68C253.525 185.347 255.498 183.213 257.952 180.28C258.592 179.533 259.312 179.16 260.112 179.16C260.805 179.16 261.338 179.48 261.712 180.12C262.138 180.76 262.352 181.64 262.352 182.76C262.352 184.893 261.845 186.547 260.832 187.72C258.538 190.547 256.058 192.867 253.392 194.68C250.778 196.493 247.792 197.4 244.432 197.4C241.712 197.4 239.658 196.627 238.272 195.08C236.885 193.48 236.192 191.187 236.192 188.2C236.192 186.707 236.565 184.04 237.312 180.2C238.005 176.84 238.352 174.52 238.352 173.24C238.352 172.387 238.058 171.96 237.472 171.96C236.778 171.96 235.792 172.867 234.512 174.68C233.285 176.44 232.005 178.787 230.672 181.72C229.392 184.653 228.352 187.747 227.552 191C226.965 193.507 226.272 195.213 225.472 196.12C224.725 196.973 223.525 197.4 221.872 197.4ZM270.759 199.16C267.986 199.16 265.852 198.52 264.359 197.24C262.919 195.96 262.199 194.52 262.199 192.92C262.199 191.533 262.706 190.333 263.719 189.32C264.732 188.307 266.226 187.8 268.199 187.8C268.892 187.8 269.692 187.88 270.599 188.04C271.559 188.147 272.279 188.227 272.759 188.28C272.706 186.893 272.386 185.587 271.799 184.36C271.266 183.133 270.572 181.96 269.719 180.84C268.866 179.667 268.066 178.653 267.319 177.8C265.666 180.947 264.012 183.56 262.359 185.64C260.759 187.72 258.999 189.693 257.079 191.56C256.119 192.52 255.106 193 254.039 193C253.186 193 252.492 192.707 251.959 192.12C251.426 191.48 251.159 190.707 251.159 189.8C251.159 188.733 251.532 187.747 252.279 186.84L253.319 185.56C256.252 181.933 258.466 178.947 259.959 176.6C260.919 175.053 261.879 173.213 262.839 171.08C263.852 168.947 265.159 166.04 266.759 162.36C267.772 160.013 269.879 158.84 273.079 158.84C274.572 158.84 275.612 158.973 276.199 159.24C276.786 159.507 277.079 159.933 277.079 160.52C277.079 160.84 276.972 161.347 276.759 162.04C276.546 162.733 276.252 163.427 275.879 164.12C274.919 166.04 274.439 167.667 274.439 169C274.439 169.8 274.706 170.68 275.239 171.64C275.826 172.6 276.706 173.8 277.879 175.24C279.586 177.48 280.866 179.4 281.719 181C282.626 182.547 283.079 184.253 283.079 186.12C283.079 188.36 282.546 190.493 281.479 192.52C280.466 194.493 279.026 196.093 277.159 197.32C275.292 198.547 273.159 199.16 270.759 199.16Z" fill="white"/>
</svg>
