<?xml version="1.0" encoding="utf-8"?>
<!-- Generator: Adobe Illustrator 24.0.2, SVG Export Plug-In . SVG Version: 6.00 Build 0)  -->
<svg version="1.1" id="Layer_1" xmlns="http://www.w3.org/2000/svg" xmlns:xlink="http://www.w3.org/1999/xlink" x="0px" y="0px"
	 viewBox="0 0 512 512" style="enable-background:new 0 0 512 512;" xml:space="preserve">
<style type="text/css">
	.st0{opacity:0.16;fill:url(#SVGID_1_);}
	.st1{fill:url(#SVGID_2_);}
	.st2{fill:url(#SVGID_3_);}
</style>
<rect width="512" height="512"/>
<radialGradient id="SVGID_1_" cx="949.8182" cy="-350.9104" r="1823.5011" gradientTransform="matrix(1.0012 0 0 1.0025 2.402934e-02 0)" gradientUnits="userSpaceOnUse">
	<stop  offset="0" style="stop-color:#00FFFF"/>
	<stop  offset="1" style="stop-color:#FF00FF;stop-opacity:0.93"/>
</radialGradient>
<rect y="-0.3" class="st0" width="512" height="512.6"/>
<g>
	<radialGradient id="SVGID_2_" cx="545.0208" cy="-208.5394" r="1129.7433" gradientUnits="userSpaceOnUse">
		<stop  offset="0" style="stop-color:#00FFFF"/>
		<stop  offset="1" style="stop-color:#FF00FF"/>
	</radialGradient>
	<path class="st1" d="M292,146.8c4.8,0,9.2,1.8,12.5,5.1l91.6,91.6c6.9,6.9,6.9,18.1,0,25l-91.6,91.6c-3.3,3.3-7.8,5.1-12.5,5.1
		c-4.8,0-9.2-1.8-12.5-5.1l-91.6-91.6c-6.9-6.9-6.9-18.1,0-25l91.6-91.6C282.8,148.6,287.3,146.8,292,146.8 M292,126.5
		c-9.7,0-19.4,3.7-26.8,11.1l-91.6,91.6c-14.7,14.7-14.7,38.9,0,53.6l91.6,91.6c7.4,7.4,17.1,11.1,26.8,11.1
		c9.7,0,19.4-3.7,26.8-11.1l91.6-91.6c14.7-14.7,14.7-38.9,0-53.6l-91.6-91.6C311.5,130.2,301.7,126.5,292,126.5L292,126.5z"/>
	<radialGradient id="SVGID_3_" cx="274.1372" cy="57.5356" r="436.0402" gradientUnits="userSpaceOnUse">
		<stop  offset="0" style="stop-color:#FF00FF"/>
		<stop  offset="1" style="stop-color:#FF931E"/>
	</radialGradient>
	<path class="st2" d="M111.6,392.7c-20.8,0-25.8-12.1-11.1-26.8l33.5-33.5c14.7-14.7,38.9-14.7,53.6,0l33.5,33.5
		c14.7,14.7,9.7,26.8-11.1,26.8H111.6z"/>
</g>
</svg>
