<svg width="224" height="224" viewBox="0 0 224 224" fill="none" xmlns="http://www.w3.org/2000/svg">
<rect width="224" height="224" fill="black"/>
<path fill-rule="evenodd" clip-rule="evenodd" d="M67.4757 101.757C86.5917 82.641 152.19 30.3234 175.934 54.0676C199.678 77.8117 147.361 143.41 128.245 162.526C110.645 180.126 96.968 166.171 83.9164 152.853C82.792 151.706 81.6723 150.564 80.5551 149.446C79.4379 148.329 78.2954 147.21 77.1481 146.085C63.831 133.034 49.8759 119.357 67.4757 101.757ZM111.022 136.752C120.766 136.752 128.666 128.852 128.666 119.108C128.666 109.364 120.766 101.465 111.022 101.465C101.278 101.465 93.379 109.364 93.379 119.108C93.379 128.852 101.278 136.752 111.022 136.752Z" fill="#E3E3E3"/>
<path d="M61.4127 175.858C45.3949 174.847 35.1085 173.976 47.4726 156.327C50.4863 152.025 52.8295 149.096 54.6013 147.161C56.2727 145.269 59.2359 145.508 60.9909 147.323C63.1948 149.602 65.4936 151.855 67.7767 154.093L67.7778 154.094C69.1693 155.458 70.5551 156.816 71.9101 158.171C73.2657 159.526 74.6244 160.913 75.9887 162.305C78.0233 164.381 80.0704 166.47 82.1386 168.488C83.8521 170.161 83.4546 173.027 81.2336 173.922C76.9942 175.327 69.8802 176.393 61.4127 175.858Z" fill="#E3E3E3"/>
</svg>
