<svg width="99" height="125" viewBox="0 0 99 125" fill="none" xmlns="http://www.w3.org/2000/svg">
<g id="Group 385">
<path id="Highlighter-Logo" d="M58.7586 114.362C52.0256 127.539 48.2788 129.739 38.5638 107.774C36.3197 101.186 34.0064 96.7923 34.0064 89.8007C33.875 86.6875 35.7805 84.3079 37.9047 84.3603C40.5724 84.4261 43.2821 84.386 45.972 84.3462C47.6115 84.322 49.2441 84.2979 50.8567 84.2979C52.47 84.2979 54.1034 84.322 55.7435 84.3463C58.1894 84.3824 60.6504 84.4188 63.0822 84.3757C64.5736 84.3492 65.7658 85.9043 65.9647 87.818C66.1101 89.2175 65.7673 90.6392 65.651 92.0445C65.0663 99.1077 62.84 105.371 58.7586 114.362Z" fill="url(#paint0_radial_368_2439)" fill-opacity="0.33"/>
<path id="Highlighter-Logo_2" fill-rule="evenodd" clip-rule="evenodd" d="M25.5147 66.9341C25.5147 51.727 30.7971 4.82519 49.6859 4.82519C68.5747 4.82519 73.8572 51.727 73.8572 66.9341C73.8572 80.935 62.8664 80.8243 52.3781 80.7187C51.4745 80.7096 50.5747 80.7005 49.6859 80.7005C48.7972 80.7005 47.8974 80.7096 46.9938 80.7187C36.5055 80.8243 25.5147 80.935 25.5147 66.9341ZM56.755 63.5324C60.6308 59.6566 60.6308 53.3727 56.755 49.4969C52.8792 45.6211 46.5953 45.6211 42.7195 49.4969C38.8437 53.3727 38.8437 59.6566 42.7195 63.5325C46.5953 67.4083 52.8792 67.4082 56.755 63.5324Z" fill="url(#paint1_radial_368_2439)"/>
<path id="Highlighter-Logo_3" d="M54.1437 100.572C50.5693 105.513 48.5803 106.338 43.4228 98.1015C42.2314 95.6309 41.0034 93.9833 41.0034 91.3614C40.9337 90.194 41.9452 89.3016 43.0729 89.3213C44.4891 89.3459 45.9276 89.3309 47.3556 89.316C48.226 89.3069 49.0927 89.2979 49.9488 89.2979C50.8052 89.2979 51.6724 89.3069 52.543 89.316C53.8415 89.3296 55.148 89.3432 56.439 89.327C56.8851 89.3214 57.2808 89.5041 57.5601 89.7931C58.3486 90.6087 57.8814 92.0024 57.6556 93.1333C57.1986 95.4222 56.0538 97.5996 54.1437 100.572Z" fill="url(#paint2_radial_368_2439)" fill-opacity="0.66"/>
</g>
<defs>
<radialGradient id="paint0_radial_368_2439" cx="0" cy="0" r="1" gradientUnits="userSpaceOnUse" gradientTransform="translate(34 84.3567) rotate(51.2138) scale(51.1924 71.774)">
<stop stop-color="#BD9488"/>
<stop offset="1" stop-color="#7092A0"/>
</radialGradient>
<radialGradient id="paint1_radial_368_2439" cx="0" cy="0" r="1" gradientUnits="userSpaceOnUse" gradientTransform="translate(0.913607 48.9156) rotate(-0.129529) scale(97.6746 140.228)">
<stop stop-color="#BD9488"/>
<stop offset="1" stop-color="#7092A0"/>
</radialGradient>
<radialGradient id="paint2_radial_368_2439" cx="0" cy="0" r="1" gradientUnits="userSpaceOnUse" gradientTransform="translate(38.0436 93.6064) rotate(-0.116994) scale(23.1972 34.5371)">
<stop stop-color="#BD9488"/>
<stop offset="1" stop-color="#7092A0"/>
</radialGradient>
</defs>
</svg>
